<svg xmlns="http://www.w3.org/2000/svg" width="84.52" height="71.969" viewBox="0 0 84.52 71.969">
  <path id="certificate" d="M1326.459,5236.03c-.508,0-1.041-.027-1.512-.051h-.015c-.411-.021-.8-.041-1.117-.041h-74.023c-.316,0-.671.013-1.016.026-.393.015-.8.03-1.2.03-.992,0-2.181-.084-2.571-.741a7.333,7.333,0,0,1-.242-3.328c.024-.428.047-.831.047-1.164v-53.125c.363-.374.7-.715,1.074-1.074h15.821a3.352,3.352,0,0,0,.732-.411,5.119,5.119,0,0,1,.441-.274c.548-.286,1.106-.559,1.645-.823l.043-.021.022-.011c.532-.261,1.083-.53,1.609-.8,1.662-.865,3.365-1.7,5.012-2.506l.007,0,.028-.014c1.62-.793,3.3-1.614,4.915-2.457,1.213-.631,2.453-1.239,3.653-1.827l.008,0c1.176-.576,2.392-1.171,3.566-1.783a11.842,11.842,0,0,1,1.118-.484,6.182,6.182,0,0,0,2.007-1.079h.094a3.968,3.968,0,0,1,2.263.747l.022.014c.176.105.359.215.55.314.767.4,1.542.78,2.292,1.146.726.355,1.478.723,2.2,1.1,2.045,1.067,4.128,2.063,6.143,3.024l.007,0c1.957.935,3.981,1.9,5.959,2.929.774.4,1.6.809,2.332,1.167l.016.008c.767.376,1.561.765,2.339,1.17.181.094.377.22.567.342a4.706,4.706,0,0,0,1,.537h15.82a1.73,1.73,0,0,0,.353.293,1.47,1.47,0,0,1,.429.391,4.714,4.714,0,0,1,.312,2.568c-.009.255-.018.518-.018.751v51.465c0,.233.005.47.01.7v.011c.027,1.233.053,2.4-.7,2.9A3.538,3.538,0,0,1,1326.459,5236.03Zm-78.521-56.343v53.124h78.125v-53.124Zm38.867-12.306h0a8.3,8.3,0,0,1-2.722,1.486c-.484.2-.941.388-1.282.565-1.568.815-3.2,1.641-4.646,2.37l-.031.016c-1.615.815-3.284,1.659-4.892,2.5-.212.11-.648.306-1.11.513a14.374,14.374,0,0,0-3.285,1.732h36.328v-.2a13.491,13.491,0,0,1-3.57-1.67l-.024-.014c-.391-.226-.729-.421-1-.561-1.629-.85-3.3-1.642-4.907-2.407l-.021-.01-.022-.011c-1.581-.751-3.217-1.527-4.815-2.359-.286-.148-.625-.351-.983-.564l-.01-.006A9.594,9.594,0,0,0,1286.8,5167.382Zm25.683,59.18h-.11a2.543,2.543,0,0,1-1.257-.194l-.326-.359-.079-.087q-.286-.314-.571-.629l-.811-.784-2.119-2.048a5.094,5.094,0,0,1-.357-.414l0-.006a2.067,2.067,0,0,0-1.3-.947l-.057.059-5.119,5.215a2.387,2.387,0,0,1-1.2.194h-.167c-.086-.1-.128-.108-.186-.116a.436.436,0,0,1-.2-.078,1.522,1.522,0,0,1-.412-.5,2.211,2.211,0,0,0-.271-.379v-17.871a8.7,8.7,0,0,1-2.674-4.523,10.527,10.527,0,0,1-.06-6.218,12.02,12.02,0,0,1,4.2-5.859,13.187,13.187,0,0,1,3.224-1.562,3.556,3.556,0,0,1,.867-.141,2.4,2.4,0,0,0,1.085-.25h.254a12.321,12.321,0,0,1,6.844,1.722,11.393,11.393,0,0,1,3.937,4.626,10.524,10.524,0,0,1,.879,6.934,13.409,13.409,0,0,1-1.562,3.711,4.123,4.123,0,0,1-.611.663l0,0a3.157,3.157,0,0,0-.751.9v17.871c-.374.384-.715.725-1.075,1.073Zm-7.226-9.374h.976c.442.433.918.862,1.337,1.24.5.451,1.013.915,1.495,1.4.123.123.237.261.358.408a2.521,2.521,0,0,0,1.01.862v-11.132a10.206,10.206,0,0,0-1.646.463,9.339,9.339,0,0,1-3.019.648h-.007a5.183,5.183,0,0,1-1.189-.136c-.454-.1-.979-.274-1.486-.437l-.009,0a11.784,11.784,0,0,0-2.02-.535v11.132h.194a9.817,9.817,0,0,1,1.806-1.884c.314-.275.639-.56.929-.849.1-.1.208-.226.317-.354a2.6,2.6,0,0,1,.952-.818Zm.567-25.013c-.224,0-.453,0-.668.007l-.386.005-1.074.293-.537.146-.537.146a8.554,8.554,0,0,0-4.3,4.589c-1.431,3.763.732,6.816,2.149,8.3l.168.235.078.109.242.34a8,8,0,0,0,1.061.467c.339.132.685.268.991.412a7.17,7.17,0,0,0,2.81.688,3.807,3.807,0,0,0,.9-.1c3.065-.75,4.876-2.035,6.054-4.3a7.109,7.109,0,0,0,.328-6.2,8.984,8.984,0,0,0-5.406-4.937A6.489,6.489,0,0,0,1305.828,5192.175Zm-41.139,31.263h-.053a.591.591,0,0,0-.259-.168.785.785,0,0,1-.228-.125,5.513,5.513,0,0,1-1.954-3.418,3.238,3.238,0,0,1-1.027-.249,2.04,2.04,0,0,0-.607-.163.352.352,0,0,0-.123.02,2.118,2.118,0,0,0-.246.4,1.309,1.309,0,0,1-.437.574,1.6,1.6,0,0,1-.783.229,2.2,2.2,0,0,1-1.516-.952l-.021-.022-.122-.134a10.754,10.754,0,0,1,2.343-6.836,1.43,1.43,0,0,1,1.156-.655,2.135,2.135,0,0,1,1.775,1.338,3.457,3.457,0,0,1,1.071-.2,3.343,3.343,0,0,1,.784.1,2.426,2.426,0,0,0,.28.324,1.577,1.577,0,0,1,.4.554v4.688h.194v-.2a2.871,2.871,0,0,0,.4-.922,1.783,1.783,0,0,1,.677-1.129,1.643,1.643,0,0,1,1.139-.293h.033a4.782,4.782,0,0,0,.419.329l0,0a1.936,1.936,0,0,1,.748.84c.449-.3.929-.618,1.465-.977a3.93,3.93,0,0,1,.8-.22,4.781,4.781,0,0,0,.67-.17c.231-.625.494-1.144,1.367-1.172a.512.512,0,0,1,.255-.054.95.95,0,0,1,.527.151,1.29,1.29,0,0,1,.878,1.27,1.428,1.428,0,0,1-.122,1.2,4.01,4.01,0,0,1-1.928,1.923.976.976,0,0,1-.245.03,1.721,1.721,0,0,1-.4-.059l-.015,0a1.563,1.563,0,0,0-.361-.056.726.726,0,0,0-.348.088,4.48,4.48,0,0,0-.933.752,4.638,4.638,0,0,1-1.02.811,2.841,2.841,0,0,1-.878.218,2.52,2.52,0,0,0-.978.271,5.865,5.865,0,0,0-.568.749A2.285,2.285,0,0,1,1264.69,5223.438Zm11.41-15.559c-.576,0-1.172-.021-1.7-.04-.383-.014-.779-.028-1.074-.028H1261.8c-.338,0-.669.009-.989.019h-.016c-.306.009-.6.017-.874.017a3,3,0,0,1-2.13-.553,2.065,2.065,0,0,1-.482-1.533,2.2,2.2,0,0,0,.271-.378,1.533,1.533,0,0,1,.413-.5.452.452,0,0,1,.2-.079c.059-.008.1-.014.187-.116h19.726c.086.1.128.108.186.116a.443.443,0,0,1,.205.079,1.516,1.516,0,0,1,.411.5,2.176,2.176,0,0,0,.272.38c.032.917-.166,1.426-.683,1.758A4.706,4.706,0,0,1,1276.1,5207.879Zm-.007-6.25c-.56,0-1.141-.02-1.653-.038h-.04c-.382-.014-.776-.028-1.071-.028H1261.8c-.337,0-.667.009-.987.019h-.066c-.288.008-.56.015-.823.015a3,3,0,0,1-2.133-.553,2.066,2.066,0,0,1-.483-1.534c.365-.375.706-.716,1.074-1.074h19.726a1.59,1.59,0,0,1,1.011,1.328,1.51,1.51,0,0,1-.619,1.5A4.645,4.645,0,0,1,1276.092,5201.629Zm-15.97-6.2a3.279,3.279,0,0,1-2.295-.628,2.061,2.061,0,0,1-.514-1.536.58.58,0,0,0,.168-.26.773.773,0,0,1,.125-.228,1.468,1.468,0,0,1,.388-.292,1.463,1.463,0,0,0,.393-.295h29.1a1.727,1.727,0,0,0,.393.283,1.285,1.285,0,0,1,.486.4,1.694,1.694,0,0,1-.489,2.148,6.257,6.257,0,0,1-2.966.389c-.839,0-1.707-.031-2.473-.058h-.02c-.531-.019-1.033-.037-1.376-.037h-17.969c-.514,0-1.054.031-1.531.058l-.032,0C1261.023,5195.4,1260.563,5195.425,1260.121,5195.425Z" transform="translate(-1244.707 -5164.062)" fill="#a4c58c"/>
</svg>
