<svg xmlns="http://www.w3.org/2000/svg" width="87.72" height="87.5" viewBox="0 0 87.72 87.5">
  <path id="new_vector_shape_done" d="M641.7,5243.75H608.3l-.346-.1a23.15,23.15,0,0,1-3.561-1.265,34.7,34.7,0,0,1-10.9-8.439,39.733,39.733,0,0,1-7.161-12.167,34.135,34.135,0,0,1-1.306-4.97c-.143-.675-.289-1.37-.451-2.061q-.046-.708-.092-1.416l-.006-.1q-.049-.757-.1-1.514l-.263-.131-.519-.26a7.319,7.319,0,0,1-1.953-1.953c-.611-.993-.513-3.683-.434-5.843.023-.621.044-1.207.045-1.677v-2.539a5.447,5.447,0,0,1,2.712-2.819l.021-.013c2.715-1.71,6.117-2.45,9.719-3.234.97-.211,1.974-.43,2.976-.671a17.156,17.156,0,0,1,2.54-.351,16.917,16.917,0,0,0,2.442-.332,3.573,3.573,0,0,1,.725-.062c.485-.009.943-.018,1.13-.329a7.982,7.982,0,0,1-1.355-2.908c-.127-.4-.258-.812-.4-1.194a53.827,53.827,0,0,1-1.848-6.461c-.277-1.142-.563-2.323-.887-3.5q-.047-.455-.1-.909-.05-.473-.1-.946l-.008-.033c-.312-1.292-.581-2.409-.058-3.073a2.229,2.229,0,0,1,1.838-.606h.083a2.416,2.416,0,0,0,1.258.4h.007a4.926,4.926,0,0,1,.882.18,37.486,37.486,0,0,1,5.273,2.149,21.683,21.683,0,0,1,11.914,16.015h.684c2.712-4.83.369-11.863-1.27-15.625a17.222,17.222,0,0,1-8.487-2.415,17.591,17.591,0,0,1-5.576-5.4c-.112-.168-.231-.341-.356-.523l0-.007a8.235,8.235,0,0,1-1.884-4.549,2.174,2.174,0,0,0,.254-.37,1.355,1.355,0,0,1,.429-.507,2.543,2.543,0,0,1,1.493-.311c.2,0,.419.006.592.011l.243.006h.015a21.283,21.283,0,0,1,5.078.78,20.3,20.3,0,0,1,6.2,2.656,10.169,10.169,0,0,1,3.856,4.961,9.679,9.679,0,0,1,.4,1.746c.056.333.113.676.185.99v1.074c.24.6.552,1.216.882,1.868l0,.005a22.58,22.58,0,0,1,1.07,2.325,10.319,10.319,0,0,1,.278,1.2c.19.956.405,2.039.7,2.224a2.564,2.564,0,0,1,.4-.945c.064-.106.129-.216.185-.325a9.348,9.348,0,0,0,.473-1.19l0,0h0a8.85,8.85,0,0,1,.5-1.246c.2-.379.431-.773.678-1.191l0-.005a16.1,16.1,0,0,0,1.077-2.027v-2.245c.182-.795.3-1.595.41-2.369a15.656,15.656,0,0,1,6.522-11.206,12.8,12.8,0,0,1,2.052-1.172,4.285,4.285,0,0,1,.58-.19,2.1,2.1,0,0,0,.885-.4h.977c.086.1.128.108.186.116a.436.436,0,0,1,.205.08,1.52,1.52,0,0,1,.412.5,2.187,2.187,0,0,0,.271.378,21.764,21.764,0,0,1-1.015,7.358,19,19,0,0,1-2.891,5.435c-.1.13-.192.262-.272.374a7.176,7.176,0,0,1-1.388,1.58l-.413.313-.073.055-.008.006a26.377,26.377,0,0,1-2.239,1.579,3,3,0,0,1-.5.221,1.49,1.49,0,0,0-.765.462,2.412,2.412,0,0,0-.29.659,3.292,3.292,0,0,1-.2.512c-.407.783-.763,1.553-1.139,2.369-.288.625-.587,1.27-.913,1.928a69.246,69.246,0,0,0-4.3,10.06h.2a12.806,12.806,0,0,1,2.929-2.735,10.325,10.325,0,0,0,1-.912l.006-.006a10.111,10.111,0,0,1,1.04-.937c1.79-1.325,3.559-2.481,5.664-3.809.3-.19.59-.4.9-.626l.009-.006a5.923,5.923,0,0,1,3.589-1.516,3.92,3.92,0,0,0,.395.4,1.716,1.716,0,0,1,.679,1.354,5.548,5.548,0,0,0-.72,1.634,8.642,8.642,0,0,1-.451,1.2c-.816,1.646-1.534,3.447-2.228,5.188-.382.958-.777,1.95-1.191,2.918h.293a7.723,7.723,0,0,1,2.219-1.917c.22-.151.445-.3.613-.429,1.089-.806,2.127-1.739,3.131-2.642s2.038-1.831,3.119-2.631c.146-.108.353-.251.572-.4.925-.64,2.323-1.606,2.553-2.233a2.843,2.843,0,0,0-.045-1.055,5,5,0,0,1-.053-1.679,14.125,14.125,0,0,1,1.562-4.3,11.286,11.286,0,0,1,6.347-4.59,6.982,6.982,0,0,1,2.051-.3,10.658,10.658,0,0,1,4.693,1.215,9.328,9.328,0,0,1,3.119,2.4,14.04,14.04,0,0,1,2.149,3.711,8.872,8.872,0,0,1-.536,7.14,12.1,12.1,0,0,1-7.081,5.75,5.348,5.348,0,0,1-1.479.191,14.188,14.188,0,0,1-2.073-.2,14.9,14.9,0,0,0-1.624-.182,6.4,6.4,0,0,1-1.346,1.1,4.662,4.662,0,0,0-1.585,1.441,16.61,16.61,0,0,1,4.28.808l.007,0,.6.167c.635.174,1.312.342,1.966.5,3.448.859,7.351,1.832,8.874,4.28a7.144,7.144,0,0,1,.405,3.457c-.008.329-.016.638-.016.937,0,.532,0,1.02.01,1.491.04,3.984.058,5.8-3.134,7.3a27.429,27.429,0,0,1-2.539,11.231,42.48,42.48,0,0,1-8.281,12.85,28.138,28.138,0,0,1-13.107,7.951h0Zm-54-30.665h0c-.339,1.056.276,3.081.571,4.053l.015.049c.182.6.3,1.159.413,1.7a13.472,13.472,0,0,0,.563,2.107,39.011,39.011,0,0,0,2.5,5.047l.234.42c4.037,7.266,9.656,12.03,16.7,14.162h32.616c7.584-2.312,13.564-7.734,17.774-16.114a29.375,29.375,0,0,0,3.32-11.327h-.1v-.1a29.174,29.174,0,0,1-5.769,1.484h-.007c-1.062.2-2.161.405-3.208.662a8.592,8.592,0,0,1-1.722.2,8.854,8.854,0,0,0-1.7.19,26.175,26.175,0,0,1-4.039.491h-.007a27.665,27.665,0,0,0-4.059.485h-1.563a19.063,19.063,0,0,1-3.114.295h-.008c-.59.024-1.147.048-1.663.1H632.91a16.368,16.368,0,0,1-3.187.24c-.579,0-1.165-.012-1.732-.022h-.032c-.53-.01-1.03-.021-1.5-.021l-1.816-.019q-3.73-.04-7.46-.078a3.316,3.316,0,0,0-.7-.06c-.193,0-.393.007-.615.017h-.02c-.19.008-.427.018-.648.018a3.948,3.948,0,0,1-.846-.075,12.382,12.382,0,0,0-2.54-.194,10.4,10.4,0,0,1-1.183,1.562c-.3.349-.608.706-.868,1.075-.613.869-1.121,1.728-1.659,2.637-.282.478-.574.97-.881,1.463-.149.24-.35.5-.526.732l-.005.007a7.95,7.95,0,0,0-.64.921c-.156.281-.286.581-.411.871-.458,1.059-.891,2.059-2.479,2.059h-.039c-1.714-1.735-2.693-4.847-3.557-7.593l-.02-.064c-.113-.359-.22-.7-.328-1.034a10.523,10.523,0,0,1-.267-1.733,6.981,6.981,0,0,0-.417-2.174v-.1a26.026,26.026,0,0,1-6.347-1.171c-.61-.175-1.212-.295-1.794-.411l-.01,0a11.743,11.743,0,0,1-2.689-.76Zm24.121-9.766a1.144,1.144,0,0,1-.619.134,2.314,2.314,0,0,0-.552.063c-.227.059-.465.118-.7.175a17.026,17.026,0,0,0-2.625.8,9.6,9.6,0,0,0-5.176,4.981,3.789,3.789,0,0,0-.256,1.216,6.638,6.638,0,0,1-.135.931,9.009,9.009,0,0,0-.2,3.418c.08.333.153.714.23,1.117l0,.014c.109.57.222,1.159.354,1.6.143.481.263.94.38,1.384a18.75,18.75,0,0,0,.791,2.522,2.816,2.816,0,0,1,.14.485c.073.323.141.628.446.785a9.77,9.77,0,0,1,1.783-2.9c.271-.347.528-.674.756-1,2.221-3.186,4.738-6.8,8.2-9.278a13.658,13.658,0,0,1,2.929-1.562c.255-.1.505-.164.706-.219a3.655,3.655,0,0,0,1.149-.464l.368-.451.056-.068.1-.117.359-.439c.052-1.062-.247-2.771-1.27-2.832a9.193,9.193,0,0,1-2.241,1.023,14,14,0,0,0-1.567.636,18.458,18.458,0,0,0-6.25,5.08,6.532,6.532,0,0,0-.7,1.443c-.448,1.16-.87,2.254-2.526,2.267a4.3,4.3,0,0,0-.422-.41,1.685,1.685,0,0,1-.652-1.641,3.534,3.534,0,0,0,.58-1.2,4.848,4.848,0,0,1,.4-.947c.44-.722.971-1.427,1.485-2.11l.176-.234a19.688,19.688,0,0,1,3.027-2.832,5.731,5.731,0,0,1,.684-.392,2.754,2.754,0,0,0,1.268-.977h-.488Zm8.124,10.6a2.232,2.232,0,0,1,.47.042,7.937,7.937,0,0,0,1.6.118c.291,0,.6-.006.847-.011h.043c.257,0,.5-.009.734-.009h5.761l.147,0a17.034,17.034,0,0,0,2.881-.193,6.9,6.9,0,0,1,1.5-.138c.355,0,.722.015,1.018.027h.048c.315.013.641.026.951.026a5.908,5.908,0,0,0,1.271-.113,6.61,6.61,0,0,1,1.427-.112h.409a5.137,5.137,0,0,0,1.094-.083H641.8a17.421,17.421,0,0,1,2.394-.292,16.762,16.762,0,0,0,2.391-.294,9.932,9.932,0,0,1,2.047-.192,9.474,9.474,0,0,0,2.053-.2c1.078-.262,2.23-.462,3.344-.654l.01,0a37.053,37.053,0,0,0,4.263-.907,2.524,2.524,0,0,1,.631-.1,2.457,2.457,0,0,0,.639-.1,30.147,30.147,0,0,0,4.493-1.758,5.031,5.031,0,0,1,.468-.2c.424-.161.824-.312,1-.779a11.274,11.274,0,0,0,.123-3.354c-.013-.309-.024-.573-.026-.748h-.2a1.86,1.86,0,0,1-.737.377l-.007,0a3.841,3.841,0,0,0-.525.206,26.4,26.4,0,0,1-4.91,1.625c-.693.182-1.316.346-1.926.522a2.847,2.847,0,0,1-.786.1,3.19,3.19,0,0,0-.776.093,31.754,31.754,0,0,1-3.354.61H652.4l-.014,0c-1.066.156-2.168.317-3.166.559l-.159.011-.16.011-2.513.173a16.626,16.626,0,0,1-2.431.292h-.006a16.942,16.942,0,0,0-2.446.293h-1.856a9.188,9.188,0,0,1-1.461.142h-.016a9.322,9.322,0,0,0-1.549.151h-1.856a3.292,3.292,0,0,1-.7.06c-.21,0-.427-.01-.656-.02h-.027c-.223-.01-.453-.02-.678-.02a3.966,3.966,0,0,0-.867.078,19.663,19.663,0,0,1-4.1.32c-1.057,0-2.179-.035-3.081-.063l-.159,0c-.9-.028-1.84-.057-2.663-.057h-.059a5.011,5.011,0,0,1-2.351,1.426l-.011,0c-.406.154-.826.313-1.251.522a11.476,11.476,0,0,0-1.674,1.091c-.128.094-.253.187-.378.276s-.243.161-.379.244l-.006,0a2.087,2.087,0,0,0-.982.925h2.735a1.484,1.484,0,0,0,.794.167c.269,0,.569-.03.834-.056l.028,0C619.392,5213.951,619.683,5213.923,619.94,5213.923Zm-35.565-10.017c0,.332-.012.686-.021,1.028a16.278,16.278,0,0,0,.118,3.269,37.829,37.829,0,0,0,6.368,2.639l.272.094a12.416,12.416,0,0,0,2.047.461h.008a13.941,13.941,0,0,1,1.559.319c.441.127,3.472.489,3.608.489h.006a1.308,1.308,0,0,0,.214-.892,2.943,2.943,0,0,1,.078-.768c.115-.428.27-.865.42-1.289.17-.479.344-.972.459-1.446h-.1v-.1a17.928,17.928,0,0,1-4.1-.684l-.83-.1-.426-.05-.4-.047c-.771-.209-1.572-.383-2.348-.551a28.139,28.139,0,0,1-3.8-1.012,11.211,11.211,0,0,1-1.252-.59,7.43,7.43,0,0,0-1.874-.776Zm65.429-18.556h0a13.951,13.951,0,0,0-2.378,1.914,19.384,19.384,0,0,1-1.625,1.407c-2.089,1.55-4.1,3.227-6.041,4.849l-.014.011c-1.89,1.577-3.844,3.207-5.859,4.711a22.6,22.6,0,0,0-2.062,1.822,17.574,17.574,0,0,1-2.723,2.28,15.428,15.428,0,0,1-3.76,1.543c-.674.209-1.371.426-2.1.7a4.831,4.831,0,0,1,.2,1.66c.417,0,.85.021,1.373.041h.014c.6.023,1.225.046,1.829.046a10.755,10.755,0,0,0,2.252-.186,1.967,1.967,0,0,1,.423-.04c.178,0,.365.016.545.031h.027c.178.015.363.03.533.03a1.3,1.3,0,0,0,.62-.12,1.774,1.774,0,0,0,.442-.427,2.245,2.245,0,0,1,.34-.355c.591-.437,1.163-.913,1.717-1.372l.011-.01,0,0c.546-.453,1.11-.922,1.685-1.348,1.689-1.254,3.337-2.583,4.93-3.869l.011-.009c1.624-1.31,3.3-2.665,5.02-3.935l.1-.073a10.689,10.689,0,0,0,1.658-1.393,2.323,2.323,0,0,0,.189-.346,1.11,1.11,0,0,1,.4-.532,1.793,1.793,0,0,1,.53-.187,1.543,1.543,0,0,0,.544-.2,10.856,10.856,0,0,0,1.294-1.127l.008-.007a12.106,12.106,0,0,1,1.14-1.014c.119-.088.258-.178.405-.274l.006,0h0a2.737,2.737,0,0,0,1.152-1.091c-1-.346-2.4-2.221-2.832-3.125Zm-8.886,16.8h0a9.517,9.517,0,0,1-1.212.919c-.19.128-.427.289-.643.449a5.616,5.616,0,0,0-.635.585,5.849,5.849,0,0,1-.635.587c-.134.1-.289.192-.453.291l-.008,0a2.383,2.383,0,0,0-1,.875h2.05a6.936,6.936,0,0,1,2.679-.278h.284a12.5,12.5,0,0,0,2.213-.113,10.475,10.475,0,0,1,1.8-.18,11.22,11.22,0,0,0,2.01-.211c1.2-.274,2.487-.437,3.733-.594l.015,0c1.009-.126,2.153-.27,3.186-.478v-.1l-.1-.033-.2-.066a4.392,4.392,0,0,0-1.914-.345,7.855,7.855,0,0,1-1.407-.144,27.05,27.05,0,0,0-3.693-.5,29.6,29.6,0,0,1-3.631-.476,4.129,4.129,0,0,0-.914-.083c-.1,0-.2,0-.3,0h-.026l-.238,0A3,3,0,0,1,640.918,5202.148Zm-38.993.728a2.483,2.483,0,0,0-.558.053,32.9,32.9,0,0,1-6.347.782v.2l3.056.456,3.486.521a4.9,4.9,0,0,1,1.183-1.056,3.66,3.66,0,0,0,1.161-1.093h-.78a1.326,1.326,0,0,1-.711.15c-.064,0-.129,0-.195,0h-.052C602.085,5202.878,602.005,5202.876,601.925,5202.876Zm47.391-7.466h0a8.951,8.951,0,0,1-1.318,1.021c-.21.143-.428.291-.635.444a9.182,9.182,0,0,0-.88.782,9.214,9.214,0,0,1-.876.78c-.114.084-.241.162-.363.237a1.9,1.9,0,0,0-.81.739h1.074a8.037,8.037,0,0,0,2.851.4,13.153,13.153,0,0,1,2.13.191,29.254,29.254,0,0,0,3.132.513,25.436,25.436,0,0,1,3.7.658c.394.111.818.238,1.228.361.881.264,1.792.537,2.58.713a1.089,1.089,0,0,0,.232.022,6.248,6.248,0,0,0,2.57-.907c.785-.445,1.642-1.088,1.691-1.557l-.163-.186-.522-.6a10.186,10.186,0,0,0-3.069-1.079l-.01,0c-.583-.139-1.185-.281-1.8-.481a61.681,61.681,0,0,0-10.743-2.05Zm-46.29-.544a2.589,2.589,0,0,0-.585.056,14.474,14.474,0,0,1-2.031.271,14.869,14.869,0,0,0-2.265.314c-1.166.286-2.363.528-3.52.762l-.015,0-.009,0a42.546,42.546,0,0,0-6.221,1.577c-.263.1-.585.193-.927.3l-.008,0c-1.192.356-2.674.8-2.973,1.655a.4.4,0,0,0,.051.408,5.742,5.742,0,0,0,3.612,1.782,1.331,1.331,0,0,0,.341-.04c1.308-.356,2.717-.608,4.21-.875l.01,0,.011,0c1.152-.206,2.343-.419,3.484-.685h.977a22.669,22.669,0,0,1,2.827-.39H600a22.822,22.822,0,0,0,2.831-.391h1.074a18.891,18.891,0,0,1,1.887-.289h.007a18.12,18.12,0,0,0,1.915-.3,2.293,2.293,0,0,1,.535-.055c.061,0,.12,0,.177,0h.006l.151,0a.848.848,0,0,0,.695-.242,13.928,13.928,0,0,1-3.809-4H604.2a1.437,1.437,0,0,1-.733.145l-.208,0h-.01Zm18.947,6.6v.1c7.341-1.4,8.69-4.616,11.138-10.449l.287-.684c.216-.512.456-1.027.709-1.571l0-.009a22.5,22.5,0,0,0,1.434-3.6h-.195a11.538,11.538,0,0,1-2.233,1.616l-.006,0c-.431.263-.876.535-1.276.821a34.077,34.077,0,0,0-7.618,7.716,10.175,10.175,0,0,0-2.344,6.055Zm-20.02-25.879a26.674,26.674,0,0,0,1.367,6.347l.179.582c1.519,4.946,2.954,9.618,6.462,12.6a7.815,7.815,0,0,1,.7.708,5.143,5.143,0,0,0,1.159,1.05,2.067,2.067,0,0,0,.7.2h.006a2.222,2.222,0,0,1,.665.186,3.66,3.66,0,0,1,.59.408,2.787,2.787,0,0,0,.972.569v-.2a7.157,7.157,0,0,1-.918-1.8,11.374,11.374,0,0,0-.546-1.228,62.911,62.911,0,0,0-4.1-6.446,13.243,13.243,0,0,0-.887-1.051c-.957-1.063-2.041-2.268-2.044-3.637.1-.109.187-.21.269-.308a1.752,1.752,0,0,1,1.686-.767h.093a50.856,50.856,0,0,1,6.741,8.984c.148.237.384.729.657,1.3l0,.006a10.249,10.249,0,0,0,1.489,2.6v-2.929a1.649,1.649,0,0,1-.142-.9,2.949,2.949,0,0,0-.054-.765c-.09-.363-.181-.755-.253-1.071a17.019,17.019,0,0,0-1.114-3.616,19.767,19.767,0,0,0-9.277-9.083c-.214-.112-.431-.231-.691-.375a8.954,8.954,0,0,0-3.7-1.381Zm50.782.683h0a10.768,10.768,0,0,1-.5,1.316,10.886,10.886,0,0,0-.674,1.907,5.854,5.854,0,0,0,.2,2.441c.78,2.925,1.938,4.23,4.589,5.176a7.386,7.386,0,0,0,2.4.479,3.6,3.6,0,0,0,.821-.088,11.613,11.613,0,0,0,1.774-.612,12.309,12.309,0,0,1,1.255-.461v-.293a5.1,5.1,0,0,1-2.069-1.115c-.165-.125-.319-.243-.471-.35a20.308,20.308,0,0,1-4.98-4.785c-.148-.207-.374-.628-.635-1.115-.571-1.064-1.281-2.389-1.709-2.5Zm5.478-2.9a2.907,2.907,0,0,0-.693.073c-.274.068-.557.162-.831.252l-.006,0a8.144,8.144,0,0,1-1.215.333,5.6,5.6,0,0,0,1.031,2.125c.12.178.234.346.336.511a16.665,16.665,0,0,0,5.176,5.567l.173.118.022.015a7.282,7.282,0,0,0,2.51,1.3.328.328,0,0,0,.225-.07c.93-1.145.793-3.992.294-5.372-.97-2.678-2.276-3.836-5.176-4.589A8.028,8.028,0,0,0,658.213,5173.364Zm-50.987-9.106v.2a1.354,1.354,0,0,1,.368.561,2.283,2.283,0,0,0,.219.415c.257.364.557.723.847,1.069l.013.015c.222.266.475.566.7.869,1.4,1.861,5.812,4.236,9.179,4.4-.069-2.206-1.371-4.035-3.87-5.437a20.418,20.418,0,0,0-7.36-2.18v.1Zm29.884-3.906h0a4.479,4.479,0,0,1-1.2,1.063,4.907,4.907,0,0,0-1.147.987c-1.7,2.261-3.282,4.843-3.32,8.4h.195a5.3,5.3,0,0,1,1.161-1.013,5.292,5.292,0,0,0,1.183-1.038,14.251,14.251,0,0,0,3.32-8.4Zm.847,77.278a5.6,5.6,0,0,1-1.238-.13l-.453-.1-.164-.037a22.553,22.553,0,0,1-5.243-1.619,5.671,5.671,0,0,1-.779-.519,4.188,4.188,0,0,0-1.077-.653h-2.148c-.575-.128-1.278-.231-1.958-.332-2.753-.406-6.179-.911-6.147-3.476.1-.109.186-.21.269-.308a1.749,1.749,0,0,1,1.686-.769h.093c.844.979,4.482,1.768,6.935,1.768a7.543,7.543,0,0,0,1.369-.107c.452-1.218,2.249-2.458,3.56-3.363.23-.159.449-.31.639-.446A74.192,74.192,0,0,1,646,5220.7c.712-.324,1.451-.593,2.165-.853l.022-.008c.6-.218,1.225-.444,1.818-.7a2.307,2.307,0,0,1,.483-.14,1.094,1.094,0,0,0,.59-.251h.977c.086.1.128.108.186.116a.44.44,0,0,1,.2.079,1.516,1.516,0,0,1,.412.5,2.183,2.183,0,0,0,.271.38,13.724,13.724,0,0,1-1.42,5.231l-.051.12-.091.215a31.507,31.507,0,0,1-3.4,6.423,14.5,14.5,0,0,1-5.292,4.515A12.105,12.105,0,0,1,637.957,5237.63Zm1.539-8.149c.115,0,.231,0,.347.011a9.977,9.977,0,0,0,.782.879,4.224,4.224,0,0,1-.195,1.562,19.682,19.682,0,0,1-5.335,1.8l-.232.055v.195a9.43,9.43,0,0,1,1.967.369l.083.022a3.682,3.682,0,0,0,.942.109,8.916,8.916,0,0,0,2.672-.5c3.558-1.239,5.2-3.337,6.835-6.542.49-.96.982-2.1,1.416-3.112l.048-.112a3.172,3.172,0,0,0,.294-1.269v-.1h-.1a5.511,5.511,0,0,1-1.96.873,8.915,8.915,0,0,0-1.361.493c-.689.345-1.4.687-2.078,1.019l-.122.059a66.193,66.193,0,0,0-6.1,3.22c-.3.185-.627.356-.977.539l-.016.008a6.033,6.033,0,0,0-2.23,1.6h.488a1.85,1.85,0,0,1,.91-.27,3.892,3.892,0,0,0,.654-.12c.28-.085.557-.181.8-.267A7.073,7.073,0,0,1,639.5,5229.481Z" transform="translate(-581.147 -5156.25)" fill="#a4c58c"/>
</svg>
