<svg xmlns="http://www.w3.org/2000/svg" width="99.899" height="72.243" viewBox="0 0 99.899 72.243">
  <path id="instruction" d="M958.753,5235.9a2.435,2.435,0,0,1-.565-.06,32.612,32.612,0,0,0-4.121-.6,35.057,35.057,0,0,1-3.99-.568,11.878,11.878,0,0,0-2.2-.209,11.311,11.311,0,0,1-2-.18l-1.066-.05-.8-.037-2.34-.109h-1.564a15.427,15.427,0,0,0-2.926-.24,13.824,13.824,0,0,0-2.156.143,2.713,2.713,0,0,1-.437.03c-.243,0-.507-.019-.786-.039h-.017c-.275-.02-.559-.04-.819-.04a2.766,2.766,0,0,0-.579.05l-6.743.1a5.416,5.416,0,0,1-1.106.089c-.137,0-.278,0-.416,0h-.066c-.127,0-.294,0-.464,0a6.489,6.489,0,0,0-1.369.116,29,29,0,0,1-4.049.468h-.006a25.368,25.368,0,0,0-4.153.507l-.178.043a12.141,12.141,0,0,1-2.711.452,2.206,2.206,0,0,1-2-.885c-.468-.7-.4-2.245-.332-3.61.02-.425.039-.827.039-1.172v-58.272a1.572,1.572,0,0,0,.367-.724,2.464,2.464,0,0,1,.219-.546,7.006,7.006,0,0,1,1.465-1.66c2.839-2.133,6.33-3.023,10.372-4.054l.182-.046a23.378,23.378,0,0,1,4.387-.526,26.667,26.667,0,0,0,4.116-.449,2.364,2.364,0,0,1,.506-.046c.286,0,.605.032.914.064h.012c.316.032.64.065.934.065a1.6,1.6,0,0,0,.859-.181c.828-.013,1.586-.02,2.319-.02a50.144,50.144,0,0,1,11.949,1.092c.866.218,1.69.348,2.486.474l.011,0a18.276,18.276,0,0,1,3.17.7,25.784,25.784,0,0,1,4.007,1.758,3.827,3.827,0,0,1,.634.483,2.63,2.63,0,0,0,1.124.688,2.53,2.53,0,0,1,.927-.719c.137-.075.292-.161.441-.257a24.29,24.29,0,0,1,6.255-2.538,6.062,6.062,0,0,1,1.254-.208h.015a7.026,7.026,0,0,0,1.174-.18,25,25,0,0,1,3.115-.513h.009c.988-.123,2.009-.25,2.934-.461h1.564a5.6,5.6,0,0,1,1.2-.1c.262,0,.526.008.8.017h.03c.263.008.536.016.8.016a6.944,6.944,0,0,0,1.46-.126,9.212,9.212,0,0,1,1.779-.147,8.709,8.709,0,0,1,1.739.147,6.578,6.578,0,0,0,1.43.129c.294,0,.6-.01.85-.019h.044c.3-.01.544-.018.8-.018a5.375,5.375,0,0,1,1.179.1h1.564a9.85,9.85,0,0,0,1.553.178,10.468,10.468,0,0,1,1.769.212c.891.211,1.809.389,2.7.561a31.007,31.007,0,0,1,4.828,1.195c2.639.979,5.368,1.991,6.84,4.2.731,1.1.712,2.872.691,4.752,0,.284-.007.6-.007.911V5217.4c0,1.531.01,3.106.02,4.628.027,4.182.054,8.506-.117,12.551a4.419,4.419,0,0,0-.478.463,2.3,2.3,0,0,1-1.184.807,1.193,1.193,0,0,1-.284.033,3.1,3.1,0,0,1-1.09-.283l-.007,0c-.138-.055-.269-.107-.377-.138a12.944,12.944,0,0,0-2.018-.344,15.018,15.018,0,0,1-1.6-.242,11.317,11.317,0,0,0-2-.21,10.894,10.894,0,0,1-1.806-.18H996.2a5.57,5.57,0,0,0-1.141-.085h-.438a6.957,6.957,0,0,1-1.45-.111,20.624,20.624,0,0,0-4.12-.308c-.409,0-.828,0-1.166.007h-.077c-.378,0-.734.007-1.088.007-.712,0-1.453-.046-2.238-.094h-.013c-.791-.049-1.61-.1-2.4-.1a10.5,10.5,0,0,0-2.195.194,4.037,4.037,0,0,1-.842.072c-.206,0-.426-.008-.6-.015h-.016c-.175-.007-.394-.016-.6-.016a3.274,3.274,0,0,0-.681.056h-2.54a13.172,13.172,0,0,1-1.927.2h-.006a12.611,12.611,0,0,0-1.88.193l-1.974.112-.423.024-1.022.058a21.542,21.542,0,0,1-3.062.381h-.006a22.215,22.215,0,0,0-3.186.4c-.143.032-.307.075-.481.121l-.015,0-.007,0A7.772,7.772,0,0,1,958.753,5235.9Zm24.452-68c-4.959,0-9.029.072-12.509.977a3.394,3.394,0,0,1-.863.093,3.234,3.234,0,0,0-.9.1c-.406.114-.823.226-1.227.333l-.111.03c-2.517.672-5.117,1.367-6.773,2.955v58.956a38.1,38.1,0,0,0,5.668-.78,11.589,11.589,0,0,1,2.143-.209h.006a11.011,11.011,0,0,0,1.955-.181h1.661a13.455,13.455,0,0,1,2.45-.191,13.81,13.81,0,0,0,2.533-.2h7.721a156.925,156.925,0,0,1,19.446,1.368V5172.3a2.523,2.523,0,0,1-.463-.425,2.243,2.243,0,0,0-.513-.453,9.884,9.884,0,0,0-2.024-.78c-.388-.117-.786-.238-1.2-.391C996.017,5168.7,990.3,5167.911,983.2,5167.907ZM930.1,5229.73c.593,0,1.2.015,1.78.029h.056l.122,0c.5.012,1.128.027,1.7.027a180.594,180.594,0,0,1,22.77,1.563,13.931,13.931,0,0,0,.149-4.037v-.006c-.027-.562-.052-1.091-.052-1.521v-53.2a.547.547,0,0,1-.092-.332l-.005-.059c-6.028-3.841-14.9-4.218-25.017-4.3a.988.988,0,0,1-.5.1c-.122,0-.249-.009-.383-.018h-.01c-.136-.01-.268-.019-.4-.019a1.7,1.7,0,0,0-.366.034,8.478,8.478,0,0,1-1.774.135,8.787,8.787,0,0,0-1.939.157c-1.232.284-2.5.5-3.73.716-3.666.636-7.126,1.235-9.366,3.384v54.368c0,.23-.014.641-.03,1.116a17.2,17.2,0,0,0,.03,3.179.351.351,0,0,0,.2.081l.039.007.053.01a3.131,3.131,0,0,1,1.642-.3,6.027,6.027,0,0,0,1.193-.1,17.834,17.834,0,0,1,2.522-.292h.012a18.425,18.425,0,0,0,2.547-.292h1.857a5.489,5.489,0,0,1,1.154-.095c.189,0,.384,0,.573.008h.087c.194,0,.395.008.594.008a6.834,6.834,0,0,0,1.4-.12A15.274,15.274,0,0,1,930.1,5229.73Zm12.657-14.942c-.679,0-1.425-.037-2.082-.07h-.01c-.569-.028-1.107-.055-1.532-.055H927.8c-.391,0-.87.023-1.378.047h-.031c-.593.028-1.206.058-1.793.058a6.182,6.182,0,0,1-1.88-.205,2.032,2.032,0,0,1-.983-.877,4.473,4.473,0,0,0-.385-.488c-.032-1.6.3-1.828.9-2.235a6.078,6.078,0,0,0,.662-.5H944.6a2.2,2.2,0,0,1,1.151.955,5.209,5.209,0,0,0,.413.51c.014,1.485-.408,2.3-1.368,2.635A6.65,6.65,0,0,1,942.755,5214.788Zm50.151-.011c-.63,0-1.317-.034-1.923-.063-.529-.026-1.029-.05-1.427-.05H977.83c-.41,0-.873.018-1.282.034h-.028c-.473.018-.962.036-1.441.036-1.645,0-3.348-.194-3.5-1.632a1.2,1.2,0,0,1-.077-1.1l0-.007c.027-.117.056-.238.075-.358a.755.755,0,0,0,.22-.312.893.893,0,0,1,.172-.272,1.688,1.688,0,0,1,.57-.323,2.021,2.021,0,0,0,.5-.264h17.2c.429,0,.861-.013,1.278-.025h.006c.388-.012.79-.023,1.179-.023,2.151,0,3.487.417,3.5,2.489a4.377,4.377,0,0,0-.371.613,1.834,1.834,0,0,1-1,1.046A6.21,6.21,0,0,1,992.906,5214.777Zm-50.06-12.492c-.643,0-1.314-.033-1.963-.065l-.037,0c-.527-.025-1.025-.05-1.422-.05H927.5c-.5,0-1,.018-1.473.035H926c-.454.017-.882.032-1.293.032a3.782,3.782,0,0,1-2.719-.727,2.787,2.787,0,0,1-.643-2.074,2.4,2.4,0,0,0,.322-.477,1.762,1.762,0,0,1,.46-.6,1.556,1.556,0,0,1,.369-.175,1.223,1.223,0,0,0,.413-.215h17.2c.52,0,1.024-.02,1.511-.039.431-.017.876-.035,1.3-.035a3.643,3.643,0,0,1,2.621.7,2.7,2.7,0,0,1,.629,2,3.979,3.979,0,0,0-.394.55,1.858,1.858,0,0,1-.974.914A6.346,6.346,0,0,1,942.846,5202.285Zm50.153,0c-.626,0-1.307-.034-1.909-.064-.5-.025-.977-.049-1.339-.049H977.83c-.41,0-.874.018-1.283.034h-.027c-.474.018-.964.036-1.443.036-1.644,0-3.347-.194-3.5-1.632a1.2,1.2,0,0,1-.076-1.1l0-.007c.027-.117.056-.237.075-.357a1.036,1.036,0,0,0,.259-.355,1.06,1.06,0,0,1,.23-.329,1.686,1.686,0,0,1,.5-.251,1.767,1.767,0,0,0,.48-.236h17.2c.442,0,.9-.014,1.274-.024h.019c.4-.012.782-.022,1.154-.022,2.161,0,3.5.416,3.514,2.486a4.591,4.591,0,0,0-.38.617,1.934,1.934,0,0,1-.988,1.042A5.469,5.469,0,0,1,993,5202.282Zm-50.164-12.492c-.646,0-1.334-.034-1.94-.064-.543-.026-1.056-.051-1.471-.051H927.5c-.534,0-1.076.021-1.512.037h-.037c-.443.016-.862.031-1.261.031a3.757,3.757,0,0,1-2.7-.724,2.8,2.8,0,0,1-.643-2.079,2.688,2.688,0,0,0,.348-.507,1.877,1.877,0,0,1,.531-.664,1.088,1.088,0,0,1,.331-.132.8.8,0,0,0,.353-.162h17.2c.528,0,1.067-.021,1.5-.038h.038c.44-.017.856-.032,1.254-.032a3.67,3.67,0,0,1,2.639.707,2.7,2.7,0,0,1,.629,2,3.891,3.891,0,0,0-.39.546l0,0a1.832,1.832,0,0,1-.975.914A6.533,6.533,0,0,1,942.836,5189.79Zm49.636-.016c-.71,0-1.518-.034-2.167-.062h-.061c-.45-.019-.838-.036-1.078-.036h-13.1c-.229,0-.472,0-.667.006h-.071c-.2,0-.4.005-.6.005-1.513,0-3-.122-3.161-1.574a1.042,1.042,0,0,1-.256-.795c.082-.665.836-1.235,1.334-1.613l.007,0c.114-.086.212-.161.284-.223h17.2c.364,0,.77-.017,1.2-.034.47-.019.956-.039,1.439-.039,1.234,0,2.694.119,3.029,1.049a1.552,1.552,0,0,1,.28,1.763,2.155,2.155,0,0,1-1.841,1.36A4.476,4.476,0,0,1,992.471,5189.774Z" transform="translate(-908.753 -5163.662)" fill="#a4c58c"/>
</svg>
